<svg width="64" height="64" viewBox="0 0 64 64" fill="none" xmlns="http://www.w3.org/2000/svg">
<path fill-rule="evenodd" clip-rule="evenodd" d="M32.0631 0.999878L29.3414 5.71408H31.5917V9.97881C19.7665 10.2264 10.2264 19.7666 9.97869 31.5917H1V32.5345H9.97868C10.2261 44.3599 19.7664 53.9002 31.5917 54.1479V63.1262H32.5345V54.1479C44.3599 53.9004 53.9003 44.3599 54.1478 32.5345H58.4121V34.7849L63.1263 32.0631L58.4121 29.3414V31.5917H54.1477C53.9 19.7665 44.3598 10.2263 32.5345 9.97881V5.71408H34.7849L32.0631 0.999878ZM18.8178 31.5917C19.0607 24.6468 24.6468 19.0607 31.5917 18.8179V30.3905C31.0055 30.544 30.5441 31.0055 30.3906 31.5917H18.8178ZM30.4161 32.5345H18.8178C19.0604 39.4796 24.6467 45.0659 31.5917 45.3088V33.6481C31.0351 33.5023 30.5909 33.0788 30.4161 32.5345ZM32.5345 33.6226V45.3088C39.4797 45.0661 45.066 39.4797 45.3087 32.5345H33.6227C33.4572 33.05 33.05 33.4571 32.5345 33.6226ZM33.6482 31.5917H45.3087C45.0658 24.6468 39.4795 19.0606 32.5345 18.8179V30.416C33.0789 30.5907 33.5025 31.035 33.6482 31.5917Z" fill="white"/>
</svg>
