<svg width="64" height="64" viewBox="0 0 64 64" fill="none" xmlns="http://www.w3.org/2000/svg">
<path fill-rule="evenodd" clip-rule="evenodd" d="M32.0631 1L29.3414 5.7142H31.5917V9.97893C19.7665 10.2266 10.2264 19.7667 9.97869 31.5918H1V32.5347H9.97868C10.2261 44.36 19.7664 53.9004 31.5917 54.148V63.1263H32.5345V54.148C44.3599 53.9005 53.9003 44.3601 54.1478 32.5347H58.4121V34.785L63.1263 32.0632L58.4121 29.3415V31.5918H54.1477C53.9 19.7666 44.3598 10.2264 32.5345 9.97893V5.7142H34.7849L32.0631 1ZM18.8178 31.5918C19.0607 24.647 24.6468 19.0609 31.5917 18.818V30.3906C31.0055 30.5441 30.5441 31.0057 30.3906 31.5918H18.8178ZM30.4161 32.5347H18.8178C19.0604 39.4797 24.6467 45.0661 31.5917 45.3089V33.6482C31.0351 33.5024 30.5909 33.0789 30.4161 32.5347ZM32.5345 33.6227V45.3089C39.4797 45.0662 45.066 39.4798 45.3087 32.5347H33.6227C33.4572 33.0501 33.05 33.4573 32.5345 33.6227ZM33.6482 31.5918H45.3087C45.0658 24.6469 39.4795 19.0607 32.5345 18.818V30.4161C33.0789 30.5908 33.5025 31.0351 33.6482 31.5918Z" fill="white"/>
</svg>
