<svg width="64" height="64" viewBox="0 0 64 64" fill="none" xmlns="http://www.w3.org/2000/svg">
<rect width="64" height="64" fill="white"/>
<path d="M16.4 28.23H18.82V39.97L15.34 43.59H9.18V41.33H14.34L16.4 39.25H11.36L9.18 36.03V28.23H11.6V35.59L12.58 37.01H16.4V28.23ZM21.1722 28.23H23.5922V28.89L24.6922 28.23H29.0322L30.8322 30.89V39.25H28.4122V31.33L27.8322 30.47H23.9522L23.5922 30.89V39.25H21.1722V28.23ZM35.0244 24.85H41.0244L42.8044 27.51V37.33L40.9844 39.25H34.9844L33.1644 36.57V26.75L35.0244 24.85ZM35.5844 27.51V33.23L40.3844 28.25V27.97L39.8044 27.11H35.9444L35.5844 27.51ZM35.5844 36.17L36.1644 36.99H40.0044L40.3844 36.59V31.05L35.5844 36.05V36.17ZM49.0166 24.85H51.2166V36.99H54.7966V39.25H45.1566V36.99H48.7766V28.33L46.6166 30.59L45.3166 28.65L49.0166 24.85Z" fill="black"/>
</svg>
