<svg width="48" height="32" viewBox="0 0 48 32" fill="none" xmlns="http://www.w3.org/2000/svg">
<path d="M14.04 13.388H15.492V20.432L13.404 22.604H9.708V21.248H12.804L14.04 20H11.016L9.708 18.068V13.388H11.16V17.804L11.748 18.656H14.04V13.388ZM16.9033 13.388H18.3553V13.784L19.0153 13.388H21.6193L22.6993 14.984V20H21.2473V15.248L20.8993 14.732H18.5713L18.3553 14.984V20H16.9033V13.388ZM25.2146 11.36H28.8146L29.8826 12.956V18.848L28.7906 20H25.1906L24.0986 18.392V12.5L25.2146 11.36ZM25.5506 12.956V16.388L28.4306 13.4V13.232L28.0826 12.716H25.7666L25.5506 12.956ZM25.5506 18.152L25.8986 18.644H28.2026L28.4306 18.404V15.08L25.5506 18.08V18.152ZM33.6099 11.36H34.9299V18.644H37.0779V20H31.2939V18.644H33.4659V13.448L32.1699 14.804L31.3899 13.64L33.6099 11.36Z" fill="#F3F3F3"/>
</svg>
